<?xml version="1.0" encoding="utf-8"?>
<!-- Generator: Adobe Illustrator 19.2.1, SVG Export Plug-In . SVG Version: 6.00 Build 0)  -->
<svg version="1.1" id="Layer_1" xmlns="http://www.w3.org/2000/svg" xmlns:xlink="http://www.w3.org/1999/xlink" x="0px" y="0px"
	 viewBox="0 0 288 288" style="enable-background:new 0 0 288 288;" xml:space="preserve">
<style type="text/css">
	.st0{fill:#8A509F;}
</style>
<g>
	<path class="st0" d="M61.7,200.3c0,1-0.4,2-1.1,3c-0.8,1-1.8,1.5-3,1.5c-0.8,0-1.6-0.2-2.4-0.6c-2.4-1.1-4.9-1.7-7.6-1.7
		c-3.4,0-6.3,0.7-8.8,2.1c-2.5,1.4-4.4,3.4-5.8,6c-1.3,2.6-2,5.5-2,8.8c0,5.7,1.5,10,4.6,12.9c3,2.9,7,4.4,12,4.4
		c2.9,0,5.5-0.6,7.6-1.7c0.9-0.4,1.6-0.6,2.3-0.6c1.2,0,2.3,0.5,3.2,1.6c0.7,0.9,1.1,1.9,1.1,3c0,0.8-0.2,1.5-0.6,2.1
		c-0.4,0.6-0.9,1.1-1.7,1.4c-3.7,1.9-7.7,2.8-12,2.8c-4.7,0-9-1-13-3c-3.9-2-7.1-4.9-9.4-8.8c-2.4-3.9-3.5-8.6-3.5-14.1
		c0-4.9,1.1-9.3,3.3-13.2c2.2-3.9,5.3-6.9,9.3-9.1c3.9-2.2,8.4-3.3,13.3-3.3c4.3,0,8.2,0.9,11.9,2.8C61,197.4,61.7,198.7,61.7,200.3
		z"/>
	<path class="st0" d="M98.7,209.7c1.8,2.9,2.7,6.9,2.7,12.1v18.4c0,1.3-0.4,2.3-1.2,3.1c-0.8,0.8-1.8,1.3-3.1,1.3
		c-1.2,0-2.3-0.4-3.1-1.3c-0.8-0.8-1.2-1.9-1.2-3.1v-18.4c0-2.6-0.5-4.7-1.5-6.2c-1-1.5-2.8-2.3-5.4-2.3c-2.7,0-4.8,0.8-6.3,2.4
		c-1.5,1.6-2.3,3.6-2.3,6.1v18.4c0,1.3-0.4,2.3-1.2,3.1c-0.8,0.8-1.8,1.3-3.1,1.3s-2.3-0.4-3.1-1.3c-0.8-0.8-1.2-1.9-1.2-3.1v-44.5
		c0-1.2,0.4-2.3,1.2-3.1c0.8-0.8,1.8-1.3,3.1-1.3s2.3,0.4,3.1,1.3c0.8,0.8,1.2,1.9,1.2,3.1v15.9c1.3-1.7,2.9-3.2,4.9-4.4
		c2-1.2,4.2-1.8,6.7-1.8C93.6,205.4,96.9,206.8,98.7,209.7z"/>
	<path class="st0" d="M145.3,235.7c-1.7,3-4.1,5.4-7.1,7.1c-3,1.7-6.3,2.5-9.9,2.5c-3.6,0-7-0.8-9.9-2.5c-3-1.7-5.3-4-7.1-7.1
		c-1.7-3-2.6-6.5-2.6-10.3c0-3.8,0.9-7.3,2.6-10.3c1.7-3,4.1-5.4,7.1-7.1c3-1.7,6.3-2.6,9.9-2.6c3.6,0,6.9,0.9,9.9,2.6
		c3,1.7,5.4,4.1,7.1,7.1c1.7,3,2.6,6.5,2.6,10.3C147.9,229.2,147,232.7,145.3,235.7z M137.7,219.1c-1-1.8-2.3-3.3-4-4.3
		c-1.7-1-3.5-1.5-5.5-1.5c-2,0-3.9,0.5-5.5,1.5c-1.7,1-3,2.4-4,4.3c-1,1.8-1.5,3.9-1.5,6.3c0,2.4,0.5,4.4,1.5,6.3
		c1,1.8,2.3,3.2,4,4.2c1.7,1,3.5,1.5,5.5,1.5c2,0,3.9-0.5,5.5-1.5c1.7-1,3-2.4,4-4.2c1-1.8,1.5-3.9,1.5-6.3
		C139.2,223,138.7,220.9,137.7,219.1z"/>
	<path class="st0" d="M189.5,235.7c-1.7,3-4.1,5.4-7.1,7.1c-3,1.7-6.3,2.5-9.9,2.5c-3.6,0-7-0.8-9.9-2.5c-3-1.7-5.3-4-7.1-7.1
		c-1.7-3-2.6-6.5-2.6-10.3c0-3.8,0.9-7.3,2.6-10.3c1.7-3,4.1-5.4,7.1-7.1c3-1.7,6.3-2.6,9.9-2.6c3.6,0,6.9,0.9,9.9,2.6
		c3,1.7,5.4,4.1,7.1,7.1c1.7,3,2.6,6.5,2.6,10.3C192.1,229.2,191.2,232.7,189.5,235.7z M181.9,219.1c-1-1.8-2.3-3.3-4-4.3
		c-1.7-1-3.5-1.5-5.5-1.5c-2,0-3.9,0.5-5.5,1.5c-1.7,1-3,2.4-4,4.3c-1,1.8-1.5,3.9-1.5,6.3c0,2.4,0.5,4.4,1.5,6.3
		c1,1.8,2.3,3.2,4,4.2c1.7,1,3.5,1.5,5.5,1.5c2,0,3.9-0.5,5.5-1.5c1.7-1,3-2.4,4-4.2c1-1.8,1.5-3.9,1.5-6.3
		C183.4,223,182.9,220.9,181.9,219.1z"/>
	<path class="st0" d="M226,237.8c0.8,0.7,1.2,1.7,1.2,2.8c0,1.1-0.4,2-1.2,2.8c-0.8,0.8-1.7,1.2-2.9,1.2h-23.2c-1.1,0-2-0.4-2.8-1.2
		c-0.7-0.8-1.1-1.6-1.1-2.6c0-0.8,0.1-1.5,0.3-2.1c0.2-0.6,0.6-1.2,1.1-1.9l17.1-22.2h-14c-1.2,0-2.1-0.4-2.9-1.2
		c-0.8-0.8-1.2-1.7-1.2-2.9c0-1.1,0.4-2,1.2-2.8s1.7-1.1,2.9-1.1h22.2c1.1,0,2,0.4,2.7,1.1s1.1,1.7,1.1,2.8c0,0.7-0.1,1.3-0.2,1.8
		c-0.1,0.5-0.5,1.1-1,1.8L208,236.7h15C224.2,236.7,225.2,237.1,226,237.8z"/>
	<path class="st0" d="M265.1,207.4c0.8,0.8,1.2,1.9,1.2,3.1v30.6c0,6.2-1.7,10.8-5,13.6c-3.4,2.9-7.8,4.3-13.5,4.3
		c-1.6,0-3.3-0.1-5-0.4c-1.7-0.3-3.1-0.6-4.1-1c-2.4-1-3.5-2.4-3.5-4.2c0-0.3,0.1-0.7,0.2-1.2c0.3-1.1,0.8-1.9,1.5-2.4
		c0.7-0.6,1.5-0.8,2.3-0.8c0.5,0,0.9,0.1,1.4,0.2c0.3,0.1,0.9,0.4,1.8,0.7c0.8,0.3,1.7,0.6,2.7,0.8c0.9,0.2,1.9,0.3,2.9,0.3
		c3.4,0,5.9-0.7,7.5-2.2c1.6-1.5,2.4-4,2.4-7.5v-0.7c-2.5,3.1-6.4,4.7-11.7,4.7c-2.5,0-4.7-0.6-6.6-1.8c-1.9-1.2-3.4-2.8-4.5-4.9
		c-1.1-2.1-1.6-4.5-1.6-7.2v-21c0-1.2,0.4-2.3,1.2-3.1c0.8-0.8,1.8-1.3,3.1-1.3s2.3,0.4,3.1,1.3c0.8,0.8,1.2,1.9,1.2,3.1v18.4
		c0,3,0.7,5.2,2,6.5s3.3,2,5.8,2c2.5,0,4.4-0.7,5.8-2.2c1.4-1.5,2.1-3.6,2.1-6.3v-18.4c0-1.2,0.4-2.3,1.2-3.1
		c0.8-0.8,1.8-1.3,3.1-1.3C263.2,206.1,264.3,206.5,265.1,207.4z"/>
	<g>
		<g>
			<g>
				<path class="st0" d="M154.3,173.9c-24.8,0-46.3-18.5-50-42.9c-0.4-2.5,1.3-4.8,3.8-5.1c2.4-0.4,4.8,1.3,5.1,3.8
					c3.1,20.1,20.8,35.3,41.1,35.3c22.9,0,41.6-18.6,41.6-41.5c0-0.1,0-0.2-0.1-0.3c0-0.2-0.1-0.5-0.1-0.7c-0.1-0.4-0.1-0.9,0-1.3
					c0-0.1,0-0.3,0-0.5c0-0.2,0-0.3,0-0.5V98.6c0-3.7-3-6.6-6.9-6.6c-5.5,0-10.1,1.4-10.2,1.4c-1.4,0.4-2.8,0.2-4-0.7
					s-1.8-2.2-1.8-3.6c0-3.9-3.2-7.1-7-7.1c-3,0-6.6,3.7-7.8,5.5c-1.1,1.6-3.2,2.3-5,1.7c-1.9-0.6-3.1-2.3-3.1-4.3
					c0-3.8-3.2-6.9-7-6.9c-4,0-7,2.9-7,6.6c0,2.5-2,4.5-4.5,4.5s-4.5-2-4.5-4.5V36.7c0-3.9-3.1-7-7-7s-7,3.2-7,7V114
					c0,2.5-2,4.5-4.5,4.5s-4.5-2-4.5-4.5V36.7c0-8.8,7.2-16,16-16s16,7.2,16,16v33.8c2.1-1,4.5-1.5,7-1.5c5.7,0,10.7,3,13.6,7.4
					c2.5-1.9,5.8-3.5,9.5-3.5c7,0,12.9,4.5,15.1,10.7c2.2-0.4,4.9-0.7,7.9-0.7c0,0,0,0,0,0c0,0,0.1,0,0.1,0
					c8.9,0,15.8,6.9,15.8,15.6l0,21.9c0,0.3,0,0.7,0,1.1c0.1,0.4,0.2,1.1,0.2,1.8C204.9,151.2,182.2,173.9,154.3,173.9z"/>
			</g>
			<g>
				<path class="st0" d="M117.4,157.8c-17.9,0-32.5-14.6-32.5-32.5s14.6-32.5,32.5-32.5c2.5,0,4.5,2,4.5,4.5s-2,4.5-4.5,4.5
					c-13,0-23.5,10.5-23.5,23.5s10.5,23.5,23.5,23.5c2.5,0,4.5,2,4.5,4.5S119.8,157.8,117.4,157.8z"/>
			</g>
		</g>
	</g>
</g>
</svg>
