<?xml version="1.0" encoding="utf-8"?>
<!-- Generator: Adobe Illustrator 19.2.1, SVG Export Plug-In . SVG Version: 6.00 Build 0)  -->
<svg version="1.1" id="Layer_1" xmlns="http://www.w3.org/2000/svg" xmlns:xlink="http://www.w3.org/1999/xlink" x="0px" y="0px"
	 viewBox="0 0 288 144" style="enable-background:new 0 0 288 144;" xml:space="preserve">
<style type="text/css">
	.st0{fill:#FFFFFF;}
</style>
<path class="st0" d="M60.8,48.8c0,1-0.4,2-1.1,3c-0.8,1-1.8,1.5-3,1.5c-0.8,0-1.6-0.2-2.4-0.6c-2.4-1.1-4.9-1.7-7.6-1.7
	c-3.4,0-6.3,0.7-8.8,2.1c-2.5,1.4-4.4,3.4-5.8,6s-2,5.5-2,8.8c0,5.7,1.5,10,4.6,12.9c3,2.9,7,4.4,12,4.4c2.9,0,5.5-0.6,7.6-1.7
	c0.9-0.4,1.6-0.6,2.3-0.6c1.2,0,2.3,0.5,3.2,1.6c0.7,0.9,1.1,1.9,1.1,3c0,0.8-0.2,1.5-0.6,2.1c-0.4,0.6-0.9,1.1-1.7,1.4
	c-3.7,1.9-7.7,2.8-12,2.8c-4.7,0-9-1-13-3s-7.1-4.9-9.4-8.8c-2.4-3.9-3.5-8.6-3.5-14.1c0-4.9,1.1-9.3,3.3-13.2
	c2.2-3.9,5.3-6.9,9.3-9.1c3.9-2.2,8.4-3.3,13.3-3.3c4.3,0,8.2,0.9,11.9,2.8C60.1,45.9,60.8,47.1,60.8,48.8z"/>
<path class="st0" d="M97.8,58.2c1.8,2.9,2.7,6.9,2.7,12.1v18.4c0,1.3-0.4,2.3-1.2,3.1S97.5,93,96.3,93s-2.3-0.4-3.1-1.3
	c-0.8-0.8-1.2-1.9-1.2-3.1V70.2c0-2.6-0.5-4.7-1.5-6.2c-1-1.5-2.8-2.3-5.4-2.3c-2.7,0-4.8,0.8-6.3,2.4c-1.5,1.6-2.3,3.6-2.3,6.1
	v18.4c0,1.3-0.4,2.3-1.2,3.1c-0.8,0.8-1.8,1.3-3.1,1.3c-1.2,0-2.3-0.4-3.1-1.3c-0.8-0.8-1.2-1.9-1.2-3.1V44.1c0-1.2,0.4-2.3,1.2-3.1
	c0.8-0.8,1.8-1.3,3.1-1.3c1.2,0,2.3,0.4,3.1,1.3c0.8,0.8,1.2,1.9,1.2,3.1v15.9c1.3-1.7,2.9-3.2,4.9-4.4c2-1.2,4.2-1.8,6.7-1.8
	C92.7,53.8,96,55.2,97.8,58.2z"/>
<path class="st0" d="M144.4,84.1c-1.7,3-4.1,5.4-7.1,7.1c-3,1.7-6.3,2.5-9.9,2.5c-3.6,0-7-0.8-9.9-2.5c-3-1.7-5.3-4-7.1-7.1
	c-1.7-3-2.6-6.5-2.6-10.3c0-3.8,0.9-7.3,2.6-10.3c1.7-3,4.1-5.4,7.1-7.1c3-1.7,6.3-2.6,9.9-2.6c3.6,0,6.9,0.9,9.9,2.6
	c3,1.7,5.4,4.1,7.1,7.1c1.7,3,2.6,6.5,2.6,10.3C147,77.7,146.1,81.1,144.4,84.1z M136.8,67.5c-1-1.8-2.3-3.3-4-4.3
	c-1.7-1-3.5-1.5-5.5-1.5c-2,0-3.9,0.5-5.5,1.5c-1.7,1-3,2.4-4,4.3c-1,1.8-1.5,3.9-1.5,6.3c0,2.4,0.5,4.4,1.5,6.3
	c1,1.8,2.3,3.2,4,4.2c1.7,1,3.5,1.5,5.5,1.5c2,0,3.9-0.5,5.5-1.5c1.7-1,3-2.4,4-4.2c1-1.8,1.5-3.9,1.5-6.3
	C138.3,71.5,137.8,69.4,136.8,67.5z"/>
<path class="st0" d="M188.6,84.1c-1.7,3-4.1,5.4-7.1,7.1c-3,1.7-6.3,2.5-9.9,2.5c-3.6,0-7-0.8-9.9-2.5c-3-1.7-5.3-4-7.1-7.1
	c-1.7-3-2.6-6.5-2.6-10.3c0-3.8,0.9-7.3,2.6-10.3c1.7-3,4.1-5.4,7.1-7.1c3-1.7,6.3-2.6,9.9-2.6c3.6,0,6.9,0.9,9.9,2.6
	c3,1.7,5.4,4.1,7.1,7.1c1.7,3,2.6,6.5,2.6,10.3C191.2,77.7,190.3,81.1,188.6,84.1z M181,67.5c-1-1.8-2.3-3.3-4-4.3
	c-1.7-1-3.5-1.5-5.5-1.5c-2,0-3.9,0.5-5.5,1.5c-1.7,1-3,2.4-4,4.3c-1,1.8-1.5,3.9-1.5,6.3c0,2.4,0.5,4.4,1.5,6.3
	c1,1.8,2.3,3.2,4,4.2c1.7,1,3.5,1.5,5.5,1.5c2,0,3.9-0.5,5.5-1.5c1.7-1,3-2.4,4-4.2c1-1.8,1.5-3.9,1.5-6.3
	C182.5,71.5,182,69.4,181,67.5z"/>
<path class="st0" d="M225.1,86.2c0.8,0.7,1.2,1.7,1.2,2.8c0,1.1-0.4,2-1.2,2.8c-0.8,0.8-1.7,1.2-2.9,1.2H199c-1.1,0-2-0.4-2.8-1.2
	c-0.7-0.8-1.1-1.6-1.1-2.6c0-0.8,0.1-1.5,0.3-2.1c0.2-0.6,0.6-1.2,1.1-1.9l17.1-22.2h-14c-1.2,0-2.1-0.4-2.9-1.2
	c-0.8-0.8-1.2-1.7-1.2-2.9c0-1.1,0.4-2,1.2-2.8s1.7-1.1,2.9-1.1h22.2c1.1,0,2,0.4,2.7,1.1s1.1,1.7,1.1,2.8c0,0.7-0.1,1.3-0.2,1.8
	c-0.1,0.5-0.5,1.1-1,1.8l-17.3,22.4h15C223.3,85.1,224.3,85.5,225.1,86.2z"/>
<path class="st0" d="M264.2,55.8c0.8,0.8,1.2,1.9,1.2,3.1v30.6c0,6.2-1.7,10.8-5,13.6c-3.4,2.9-7.8,4.3-13.5,4.3
	c-1.6,0-3.3-0.1-5-0.4c-1.7-0.3-3.1-0.6-4.1-1c-2.4-1-3.5-2.4-3.5-4.2c0-0.3,0.1-0.7,0.2-1.2c0.3-1.1,0.8-1.9,1.5-2.4
	c0.7-0.6,1.5-0.8,2.3-0.8c0.5,0,0.9,0.1,1.4,0.2c0.3,0.1,0.9,0.4,1.8,0.7c0.8,0.3,1.7,0.6,2.7,0.8c0.9,0.2,1.9,0.3,2.9,0.3
	c3.4,0,5.9-0.7,7.5-2.2c1.6-1.5,2.4-4,2.4-7.5v-0.7c-2.5,3.1-6.4,4.7-11.7,4.7c-2.5,0-4.7-0.6-6.6-1.8s-3.4-2.8-4.5-4.9
	c-1.1-2.1-1.6-4.5-1.6-7.2v-21c0-1.2,0.4-2.3,1.2-3.1s1.8-1.3,3.1-1.3s2.3,0.4,3.1,1.3c0.8,0.8,1.2,1.9,1.2,3.1v18.4
	c0,3,0.7,5.2,2,6.5c1.3,1.3,3.3,2,5.8,2c2.5,0,4.4-0.7,5.8-2.2c1.4-1.5,2.1-3.6,2.1-6.3V58.9c0-1.2,0.4-2.3,1.2-3.1s1.8-1.3,3.1-1.3
	C262.3,54.5,263.4,54.9,264.2,55.8z"/>
</svg>
