<!--?xml version="1.0" encoding="utf-8"?-->
<!-- Generator: Adobe Illustrator 19.2.1, SVG Export Plug-In . SVG Version: 6.00 Build 0)  -->
<svg version="1.1" id="Layer_1" xmlns="http://www.w3.org/2000/svg" xmlns:xlink="http://www.w3.org/1999/xlink" x="0px" y="0px" viewBox="0 0 288 288" style="" xml:space="preserve">
<style type="text/css">
	.st0{fill:#FFFFFF;}
	.st1{fill:none;stroke:#FFFFFF;stroke-width:9;stroke-linecap:round;stroke-linejoin:round;stroke-miterlimit:10;}
</style>
<g>
	<path class="st0 peKbqfls_0" d="M60.8,200.6c0,1-0.4,2-1.1,3c-0.8,1-1.8,1.5-3,1.5c-0.8,0-1.6-0.2-2.4-0.6c-2.4-1.1-4.9-1.7-7.6-1.7
		c-3.4,0-6.3,0.7-8.8,2.1c-2.5,1.4-4.4,3.4-5.8,6c-1.3,2.6-2,5.5-2,8.8c0,5.7,1.5,10,4.6,12.9c3,2.9,7,4.4,12,4.4
		c2.9,0,5.5-0.6,7.6-1.7c0.9-0.4,1.6-0.6,2.3-0.6c1.2,0,2.3,0.5,3.2,1.6c0.7,0.9,1.1,1.9,1.1,3c0,0.8-0.2,1.5-0.6,2.1
		c-0.4,0.6-0.9,1.1-1.7,1.4c-3.7,1.9-7.7,2.8-12,2.8c-4.7,0-9-1-13-3c-3.9-2-7.1-4.9-9.4-8.8c-2.4-3.9-3.5-8.6-3.5-14.1
		c0-4.9,1.1-9.3,3.3-13.2c2.2-3.9,5.3-6.9,9.3-9.1c3.9-2.2,8.4-3.3,13.3-3.3c4.3,0,8.2,0.9,11.9,2.8
		C60.1,197.7,60.8,198.9,60.8,200.6z"></path>
	<path class="st0 peKbqfls_1" d="M97.8,210c1.8,2.9,2.7,6.9,2.7,12.1v18.4c0,1.2-0.4,2.3-1.2,3.1c-0.8,0.8-1.8,1.3-3.1,1.3
		c-1.2,0-2.3-0.4-3.1-1.3c-0.8-0.8-1.2-1.9-1.2-3.1V222c0-2.6-0.5-4.7-1.5-6.2c-1-1.5-2.8-2.3-5.4-2.3c-2.7,0-4.8,0.8-6.3,2.4
		c-1.5,1.6-2.3,3.6-2.3,6.1v18.4c0,1.2-0.4,2.3-1.2,3.1c-0.8,0.8-1.8,1.3-3.1,1.3c-1.2,0-2.3-0.4-3.1-1.3c-0.8-0.8-1.2-1.9-1.2-3.1
		V196c0-1.2,0.4-2.3,1.2-3.1c0.8-0.8,1.8-1.3,3.1-1.3c1.2,0,2.3,0.4,3.1,1.3c0.8,0.8,1.2,1.9,1.2,3.1v15.9c1.3-1.7,2.9-3.2,4.9-4.4
		c2-1.2,4.2-1.8,6.7-1.8C92.7,205.6,96,207.1,97.8,210z"></path>
	<path class="st0 peKbqfls_2" d="M144.4,236c-1.7,3-4.1,5.4-7.1,7.1c-3,1.7-6.3,2.5-9.9,2.5c-3.6,0-7-0.8-9.9-2.5c-3-1.7-5.3-4-7.1-7.1
		c-1.7-3-2.6-6.5-2.6-10.3c0-3.8,0.9-7.3,2.6-10.3c1.7-3,4.1-5.4,7.1-7.1c3-1.7,6.3-2.6,9.9-2.6c3.6,0,6.9,0.9,9.9,2.6
		c3,1.7,5.4,4.1,7.1,7.1c1.7,3,2.6,6.5,2.6,10.3C147,229.5,146.1,232.9,144.4,236z M136.8,219.3c-1-1.8-2.3-3.3-4-4.3
		c-1.7-1-3.5-1.5-5.5-1.5s-3.9,0.5-5.5,1.5c-1.7,1-3,2.4-4,4.3c-1,1.8-1.5,3.9-1.5,6.3c0,2.4,0.5,4.4,1.5,6.3c1,1.8,2.3,3.2,4,4.2
		c1.7,1,3.5,1.5,5.5,1.5s3.9-0.5,5.5-1.5c1.7-1,3-2.4,4-4.2c1-1.8,1.5-3.9,1.5-6.3C138.3,223.3,137.8,221.2,136.8,219.3z"></path>
	<path class="st0 peKbqfls_3" d="M188.6,236c-1.7,3-4.1,5.4-7.1,7.1c-3,1.7-6.3,2.5-9.9,2.5c-3.6,0-7-0.8-9.9-2.5c-3-1.7-5.3-4-7.1-7.1
		c-1.7-3-2.6-6.5-2.6-10.3c0-3.8,0.9-7.3,2.6-10.3c1.7-3,4.1-5.4,7.1-7.1c3-1.7,6.3-2.6,9.9-2.6c3.6,0,6.9,0.9,9.9,2.6
		c3,1.7,5.4,4.1,7.1,7.1c1.7,3,2.6,6.5,2.6,10.3C191.2,229.5,190.3,232.9,188.6,236z M181,219.3c-1-1.8-2.3-3.3-4-4.3
		c-1.7-1-3.5-1.5-5.5-1.5c-2,0-3.9,0.5-5.5,1.5c-1.7,1-3,2.4-4,4.3c-1,1.8-1.5,3.9-1.5,6.3c0,2.4,0.5,4.4,1.5,6.3
		c1,1.8,2.3,3.2,4,4.2c1.7,1,3.5,1.5,5.5,1.5c2,0,3.9-0.5,5.5-1.5c1.7-1,3-2.4,4-4.2c1-1.8,1.5-3.9,1.5-6.3
		C182.5,223.3,182,221.2,181,219.3z"></path>
	<path class="st0 peKbqfls_4" d="M225.1,238c0.8,0.7,1.2,1.7,1.2,2.8c0,1.1-0.4,2-1.2,2.8c-0.8,0.8-1.7,1.2-2.9,1.2H199c-1.1,0-2-0.4-2.8-1.2
		c-0.7-0.8-1.1-1.6-1.1-2.6c0-0.8,0.1-1.5,0.3-2.1c0.2-0.6,0.6-1.2,1.1-1.9l17.1-22.2h-14c-1.2,0-2.1-0.4-2.9-1.2
		c-0.8-0.8-1.2-1.7-1.2-2.9c0-1.1,0.4-2,1.2-2.8c0.8-0.7,1.7-1.1,2.9-1.1h22.2c1.1,0,2,0.4,2.7,1.1c0.7,0.7,1.1,1.7,1.1,2.8
		c0,0.7-0.1,1.3-0.2,1.8c-0.1,0.5-0.5,1.1-1,1.8l-17.3,22.4h15C223.3,236.9,224.3,237.3,225.1,238z"></path>
	<path class="st0 peKbqfls_5" d="M264.2,207.6c0.8,0.8,1.2,1.9,1.2,3.1v30.6c0,6.2-1.7,10.8-5,13.6c-3.4,2.9-7.8,4.3-13.5,4.3
		c-1.6,0-3.3-0.1-5-0.4c-1.7-0.3-3.1-0.6-4.1-1c-2.4-1-3.5-2.4-3.5-4.2c0-0.3,0.1-0.7,0.2-1.2c0.3-1.1,0.8-1.9,1.5-2.4
		c0.7-0.6,1.5-0.8,2.3-0.8c0.5,0,0.9,0.1,1.4,0.2c0.3,0.1,0.9,0.4,1.8,0.7c0.8,0.3,1.7,0.6,2.7,0.8c0.9,0.2,1.9,0.3,2.9,0.3
		c3.4,0,5.9-0.7,7.5-2.2c1.6-1.5,2.4-4,2.4-7.5v-0.7c-2.5,3.1-6.4,4.7-11.7,4.7c-2.5,0-4.7-0.6-6.6-1.8s-3.4-2.8-4.5-4.9
		c-1.1-2.1-1.6-4.5-1.6-7.2v-21c0-1.2,0.4-2.3,1.2-3.1s1.8-1.3,3.1-1.3c1.2,0,2.3,0.4,3.1,1.3c0.8,0.8,1.2,1.9,1.2,3.1v18.4
		c0,3,0.7,5.2,2,6.5c1.3,1.3,3.3,2,5.8,2c2.5,0,4.4-0.7,5.8-2.2c1.4-1.5,2.1-3.6,2.1-6.3v-18.4c0-1.2,0.4-2.3,1.2-3.1
		c0.8-0.8,1.8-1.3,3.1-1.3C262.3,206.3,263.4,206.7,264.2,207.6z"></path>
</g>
<g>
	<path class="st1 peKbqfls_6" d="M107.9,130.6c3.4,22.1,22.5,39.1,45.6,39.1c25.5,0,46.1-20.6,46.1-46.1c0-0.5-0.1-1.1-0.1-1.6
		c0.1-0.5,0.1-1.1,0.1-1.7V98.8c0-6.3-5.2-11.5-11.5-11.5h0c-6.3,0-11.5,1.8-11.5,1.8c0-6.3-5.2-11.5-11.5-11.5s-11.5,7.3-11.5,7.3
		c0-6.3-5.2-11.5-11.5-11.5h0c-6.3,0-11.5,5.2-11.5,11.5V36.9c0-6.3-5.2-11.5-11.5-11.5c-6.3,0-11.5,5.2-11.5,11.5l0,77.4"></path>
	<path class="st1 peKbqfls_7" d="M116.5,153.5c-15.5,0-28-12.5-28-28s12.5-28,28-28"></path>
</g>
<style data-made-with="vivus-instant">.peKbqfls_0{stroke-dasharray:205 207;stroke-dashoffset:206;animation:peKbqfls_draw 1000ms ease-out 0ms forwards;}.peKbqfls_1{stroke-dasharray:221 223;stroke-dashoffset:222;animation:peKbqfls_draw 1000ms ease-out 71ms forwards;}.peKbqfls_2{stroke-dasharray:198 200;stroke-dashoffset:199;animation:peKbqfls_draw 1000ms ease-out 142ms forwards;}.peKbqfls_3{stroke-dasharray:198 200;stroke-dashoffset:199;animation:peKbqfls_draw 1000ms ease-out 214ms forwards;}.peKbqfls_4{stroke-dasharray:177 179;stroke-dashoffset:178;animation:peKbqfls_draw 1000ms ease-out 285ms forwards;}.peKbqfls_5{stroke-dasharray:254 256;stroke-dashoffset:255;animation:peKbqfls_draw 1000ms ease-out 357ms forwards;}.peKbqfls_6{stroke-dasharray:423 425;stroke-dashoffset:424;animation:peKbqfls_draw 1000ms ease-out 428ms forwards;}.peKbqfls_7{stroke-dasharray:89 91;stroke-dashoffset:90;animation:peKbqfls_draw 1000ms ease-out 500ms forwards;}@keyframes peKbqfls_draw{100%{stroke-dashoffset:0;}}@keyframes peKbqfls_fade{0%{stroke-opacity:1;}92.98245614035088%{stroke-opacity:1;}100%{stroke-opacity:0;}}</style></svg>
